<svg xmlns="http://www.w3.org/2000/svg" viewBox="0 0 980 260" width="980" height="260" role="img" aria-label="Car BMT">
  <defs>
    <linearGradient id="markFill" x1="28" y1="30" x2="218" y2="218" gradientUnits="userSpaceOnUse">
      <stop offset="0" stop-color="#132f3e" />
      <stop offset="1" stop-color="#071b26" />
    </linearGradient>
    <linearGradient id="gold" x1="0" y1="0" x2="1" y2="1">
      <stop offset="0" stop-color="#f0c66b" />
      <stop offset="1" stop-color="#a66d11" />
    </linearGradient>
    <linearGradient id="blue" x1="0" y1="0" x2="1" y2="1">
      <stop offset="0" stop-color="#2d8fb1" />
      <stop offset="1" stop-color="#0f607d" />
    </linearGradient>
    <filter id="softShadow" x="-20%" y="-20%" width="140%" height="140%">
      <feDropShadow dx="0" dy="14" stdDeviation="18" flood-color="#102a37" flood-opacity="0.16" />
    </filter>
  </defs>

  <g filter="url(#softShadow)">
    <rect x="32" y="32" width="196" height="196" rx="44" fill="url(#markFill)" />
    <path d="M76 158 C95 122, 126 104, 166 104 C190 104, 209 113, 222 130"
      fill="none" stroke="url(#gold)" stroke-width="12" stroke-linecap="round" />
    <path d="M70 151 H91 L116 118 H162 C188 118, 210 134, 218 157 L222 171 H206 C202 151, 187 139, 168 139 C149 139, 134 151, 130 171 H112 C108 151, 93 139, 74 139 C55 139, 40 151, 36 171 H28 V163 C28 157, 34 152, 43 151 H70Z"
      fill="#ffffff" />
    <path d="M118 121 H156 C177 121, 195 133, 202 150 H94 L118 121Z" fill="#d9edf3" />
    <circle cx="74" cy="171" r="22" fill="#071b26" />
    <circle cx="74" cy="171" r="9" fill="#ffffff" />
    <circle cx="168" cy="171" r="22" fill="#071b26" />
    <circle cx="168" cy="171" r="9" fill="#ffffff" />
    <path d="M52 199 H207" stroke="#ffffff" stroke-opacity="0.22" stroke-width="8" stroke-linecap="round" />
  </g>

  <g transform="translate(274 76)">
    <text x="0" y="88"
      font-family="'Be Vietnam Pro', 'IBM Plex Sans', ui-sans-serif, system-ui, sans-serif"
      font-size="88"
      font-weight="800"
      letter-spacing="0"
      fill="#102a37">car</text>
    <text x="172" y="88"
      font-family="'Be Vietnam Pro', 'IBM Plex Sans', ui-sans-serif, system-ui, sans-serif"
      font-size="88"
      font-weight="800"
      letter-spacing="0"
      fill="url(#blue)">bmt</text>
    <rect x="4" y="112" width="356" height="2.5" rx="1.25" fill="url(#gold)" opacity="0.85" />
    <text x="4" y="152"
      font-family="'IBM Plex Sans', 'Be Vietnam Pro', ui-sans-serif, system-ui, sans-serif"
      font-size="25"
      font-weight="700"
      letter-spacing="5"
      fill="#607684">AUTO SERVICE MARKET</text>
  </g>
</svg>
