<svg xmlns="http://www.w3.org/2000/svg" viewBox="0 0 1200 360" width="1200" height="360" role="img" aria-label="car bmt logo">
  <defs>
    <linearGradient id="g" x1="0" y1="0" x2="1" y2="1">
      <stop offset="0" stop-color="#111827" />
      <stop offset="1" stop-color="#0f172a" />
    </linearGradient>
    <filter id="shadow" x="-20%" y="-20%" width="140%" height="140%">
      <feDropShadow dx="0" dy="10" stdDeviation="12" flood-color="#000" flood-opacity="0.25" />
    </filter>
  </defs>

  <g transform="translate(80,70)" filter="url(#shadow)">
    <rect x="0" y="0" width="220" height="220" rx="48" fill="url(#g)" />
    <path d="M40 170 C80 140, 140 140, 180 170" fill="none" stroke="#ffffff" stroke-opacity="0.18" stroke-width="10" stroke-linecap="round" />
    <path d="M110 152 L110 190" stroke="#ffffff" stroke-opacity="0.22" stroke-width="8" stroke-linecap="round" />

    <path d="M55 125
             C70 95, 95 82, 125 82
             C155 82, 178 95, 190 118
             L200 122
             C205 123, 210 128, 210 135
             L210 152
             C210 160, 204 166, 196 166
             L188 166
             C184 148, 170 136, 152 136
             C134 136, 120 148, 116 166
             L104 166
             C100 148, 86 136, 68 136
             C50 136, 36 148, 32 166
             L24 166
             C16 166, 10 160, 10 152
             L10 142
             C10 134, 15 128, 23 126
             L55 125 Z"
      fill="#ffffff" />

    <circle cx="68" cy="166" r="18" fill="#0b1220" />
    <circle cx="68" cy="166" r="10" fill="#ffffff" fill-opacity="0.9" />
    <circle cx="152" cy="166" r="18" fill="#0b1220" />
    <circle cx="152" cy="166" r="10" fill="#ffffff" fill-opacity="0.9" />

    <path d="M70 112 C92 96, 120 92, 150 96" fill="none" stroke="#60a5fa" stroke-width="8" stroke-linecap="round" stroke-opacity="0.95" />
  </g>

  <g transform="translate(340,120)">
    <text x="0" y="90"
          font-family="Inter, ui-sans-serif, system-ui, -apple-system, Segoe UI, Roboto, Helvetica, Arial, sans-serif"
          font-size="112"
          font-weight="800"
          letter-spacing="-2"
          fill="#0f172a">car</text>

    <text x="235" y="90"
          font-family="Inter, ui-sans-serif, system-ui, -apple-system, Segoe UI, Roboto, Helvetica, Arial, sans-serif"
          font-size="112"
          font-weight="800"
          letter-spacing="-2"
          fill="#2563eb">bmt</text>

    <text x="0" y="140"
          font-family="Inter, ui-sans-serif, system-ui, -apple-system, Segoe UI, Roboto, Helvetica, Arial, sans-serif"
          font-size="28"
          font-weight="500"
          letter-spacing="4"
          fill="#64748b">AUTO • SERVICE • MARKET</text>
  </g>
</svg>
